<svg id="visual" viewBox="0 0 900 200" width="900" height="200" xmlns="http://www.w3.org/2000/svg" xmlns:xlink="http://www.w3.org/1999/xlink" version="1.1"><path d="M0 67L15 61.8C30 56.7 60 46.3 90 40.7C120 35 150 34 180 38C210 42 240 51 270 50.3C300 49.7 330 39.3 360 41.5C390 43.7 420 58.3 450 67.3C480 76.3 510 79.7 540 77.7C570 75.7 600 68.3 630 62.2C660 56 690 51 720 55.5C750 60 780 74 810 78.5C840 83 870 78 885 75.5L900 73L900 201L885 201C870 201 840 201 810 201C780 201 750 201 720 201C690 201 660 201 630 201C600 201 570 201 540 201C510 201 480 201 450 201C420 201 390 201 360 201C330 201 300 201 270 201C240 201 210 201 180 201C150 201 120 201 90 201C60 201 30 201 15 201L0 201Z" fill="#00ffbb"></path><path d="M0 95L15 93.3C30 91.7 60 88.3 90 90C120 91.7 150 98.3 180 102.2C210 106 240 107 270 100.8C300 94.7 330 81.3 360 75.7C390 70 420 72 450 78.8C480 85.7 510 97.3 540 98.2C570 99 600 89 630 84.7C660 80.3 690 81.7 720 83.7C750 85.7 780 88.3 810 87C840 85.7 870 80.3 885 77.7L900 75L900 201L885 201C870 201 840 201 810 201C780 201 750 201 720 201C690 201 660 201 630 201C600 201 570 201 540 201C510 201 480 201 450 201C420 201 390 201 360 201C330 201 300 201 270 201C240 201 210 201 180 201C150 201 120 201 90 201C60 201 30 201 15 201L0 201Z" fill="#00e2f7"></path><path d="M0 136L15 134C30 132 60 128 90 121.8C120 115.7 150 107.3 180 104.8C210 102.3 240 105.7 270 110.2C300 114.7 330 120.3 360 124.2C390 128 420 130 450 129.3C480 128.7 510 125.3 540 123.2C570 121 600 120 630 123C660 126 690 133 720 132.5C750 132 780 124 810 121.5C840 119 870 122 885 123.5L900 125L900 201L885 201C870 201 840 201 810 201C780 201 750 201 720 201C690 201 660 201 630 201C600 201 570 201 540 201C510 201 480 201 450 201C420 201 390 201 360 201C330 201 300 201 270 201C240 201 210 201 180 201C150 201 120 201 90 201C60 201 30 201 15 201L0 201Z" fill="#00bbff"></path><path d="M0 135L15 136.8C30 138.7 60 142.3 90 140.7C120 139 150 132 180 128.8C210 125.7 240 126.3 270 126.8C300 127.3 330 127.7 360 128C390 128.3 420 128.7 450 129.5C480 130.3 510 131.7 540 132.8C570 134 600 135 630 132.2C660 129.3 690 122.7 720 127C750 131.3 780 146.7 810 149.7C840 152.7 870 143.3 885 138.7L900 134L900 201L885 201C870 201 840 201 810 201C780 201 750 201 720 201C690 201 660 201 630 201C600 201 570 201 540 201C510 201 480 201 450 201C420 201 390 201 360 201C330 201 300 201 270 201C240 201 210 201 180 201C150 201 120 201 90 201C60 201 30 201 15 201L0 201Z" fill="#008aff"></path><path d="M0 176L15 171.7C30 167.3 60 158.7 90 155C120 151.3 150 152.7 180 154.2C210 155.7 240 157.3 270 159.2C300 161 330 163 360 163.7C390 164.3 420 163.7 450 167.2C480 170.7 510 178.3 540 177C570 175.7 600 165.3 630 162C660 158.7 690 162.3 720 167.3C750 172.3 780 178.7 810 176.5C840 174.3 870 163.7 885 158.3L900 153L900 201L885 201C870 201 840 201 810 201C780 201 750 201 720 201C690 201 660 201 630 201C600 201 570 201 540 201C510 201 480 201 450 201C420 201 390 201 360 201C330 201 300 201 270 201C240 201 210 201 180 201C150 201 120 201 90 201C60 201 30 201 15 201L0 201Z" fill="#0044ff"></path></svg>