<svg id="visual" viewBox="0 0 900 200" width="900" height="200" xmlns="http://www.w3.org/2000/svg" xmlns:xlink="http://www.w3.org/1999/xlink" version="1.1"><rect x="0" y="0" width="900" height="200" fill="#00c3ff"></rect><path d="M0 30L15 35C30 40 60 50 90 54.3C120 58.7 150 57.3 180 51.7C210 46 240 36 270 36.5C300 37 330 48 360 49.5C390 51 420 43 450 39.8C480 36.7 510 38.3 540 44.7C570 51 600 62 630 64.3C660 66.7 690 60.3 720 54.7C750 49 780 44 810 41.7C840 39.3 870 39.7 885 39.8L900 40L900 201L885 201C870 201 840 201 810 201C780 201 750 201 720 201C690 201 660 201 630 201C600 201 570 201 540 201C510 201 480 201 450 201C420 201 390 201 360 201C330 201 300 201 270 201C240 201 210 201 180 201C150 201 120 201 90 201C60 201 30 201 15 201L0 201Z" fill="#00ffbb"></path><path d="M0 95L15 91.7C30 88.3 60 81.7 90 74.2C120 66.7 150 58.3 180 53.7C210 49 240 48 270 55C300 62 330 77 360 84.2C390 91.3 420 90.7 450 86.2C480 81.7 510 73.3 540 72.8C570 72.3 600 79.7 630 85.7C660 91.7 690 96.3 720 96C750 95.7 780 90.3 810 85.8C840 81.3 870 77.7 885 75.8L900 74L900 201L885 201C870 201 840 201 810 201C780 201 750 201 720 201C690 201 660 201 630 201C600 201 570 201 540 201C510 201 480 201 450 201C420 201 390 201 360 201C330 201 300 201 270 201C240 201 210 201 180 201C150 201 120 201 90 201C60 201 30 201 15 201L0 201Z" fill="#00e2f7"></path><path d="M0 121L15 117.7C30 114.3 60 107.7 90 102.7C120 97.7 150 94.3 180 93.5C210 92.7 240 94.3 270 92.5C300 90.7 330 85.3 360 85.2C390 85 420 90 450 90C480 90 510 85 540 89.7C570 94.3 600 108.7 630 117.2C660 125.7 690 128.3 720 129.2C750 130 780 129 810 123.7C840 118.3 870 108.7 885 103.8L900 99L900 201L885 201C870 201 840 201 810 201C780 201 750 201 720 201C690 201 660 201 630 201C600 201 570 201 540 201C510 201 480 201 450 201C420 201 390 201 360 201C330 201 300 201 270 201C240 201 210 201 180 201C150 201 120 201 90 201C60 201 30 201 15 201L0 201Z" fill="#00bbff"></path><path d="M0 118L15 123.3C30 128.7 60 139.3 90 139.3C120 139.3 150 128.7 180 125.8C210 123 240 128 270 134.3C300 140.7 330 148.3 360 151.3C390 154.3 420 152.7 450 149.5C480 146.3 510 141.7 540 138.7C570 135.7 600 134.3 630 131C660 127.7 690 122.3 720 122.3C750 122.3 780 127.7 810 131.7C840 135.7 870 138.3 885 139.7L900 141L900 201L885 201C870 201 840 201 810 201C780 201 750 201 720 201C690 201 660 201 630 201C600 201 570 201 540 201C510 201 480 201 450 201C420 201 390 201 360 201C330 201 300 201 270 201C240 201 210 201 180 201C150 201 120 201 90 201C60 201 30 201 15 201L0 201Z" fill="#008aff"></path><path d="M0 172L15 170.3C30 168.7 60 165.3 90 166.7C120 168 150 174 180 171.7C210 169.3 240 158.7 270 154.8C300 151 330 154 360 160.2C390 166.3 420 175.7 450 176.5C480 177.3 510 169.7 540 168.2C570 166.7 600 171.3 630 174.5C660 177.7 690 179.3 720 176.3C750 173.3 780 165.7 810 161C840 156.3 870 154.7 885 153.8L900 153L900 201L885 201C870 201 840 201 810 201C780 201 750 201 720 201C690 201 660 201 630 201C600 201 570 201 540 201C510 201 480 201 450 201C420 201 390 201 360 201C330 201 300 201 270 201C240 201 210 201 180 201C150 201 120 201 90 201C60 201 30 201 15 201L0 201Z" fill="#0044ff"></path></svg>