<svg id="visual" viewBox="0 0 900 900" width="900" height="900" xmlns="http://www.w3.org/2000/svg" xmlns:xlink="http://www.w3.org/1999/xlink" version="1.1"><rect x="0" y="0" width="900" height="900" fill="#001347"></rect><defs><linearGradient id="grad1_0" x1="0%" y1="0%" x2="100%" y2="100%"><stop offset="30%" stop-color="#005e45" stop-opacity="1"></stop><stop offset="70%" stop-color="#005e45" stop-opacity="1"></stop></linearGradient></defs><defs><linearGradient id="grad1_1" x1="0%" y1="0%" x2="100%" y2="100%"><stop offset="30%" stop-color="#005e45" stop-opacity="1"></stop><stop offset="70%" stop-color="#004a56" stop-opacity="1"></stop></linearGradient></defs><defs><linearGradient id="grad1_2" x1="0%" y1="0%" x2="100%" y2="100%"><stop offset="30%" stop-color="#00315c" stop-opacity="1"></stop><stop offset="70%" stop-color="#004a56" stop-opacity="1"></stop></linearGradient></defs><defs><linearGradient id="grad1_3" x1="0%" y1="0%" x2="100%" y2="100%"><stop offset="30%" stop-color="#00315c" stop-opacity="1"></stop><stop offset="70%" stop-color="#001347" stop-opacity="1"></stop></linearGradient></defs><defs><linearGradient id="grad2_0" x1="0%" y1="0%" x2="100%" y2="100%"><stop offset="30%" stop-color="#005e45" stop-opacity="1"></stop><stop offset="70%" stop-color="#005e45" stop-opacity="1"></stop></linearGradient></defs><defs><linearGradient id="grad2_1" x1="0%" y1="0%" x2="100%" y2="100%"><stop offset="30%" stop-color="#004a56" stop-opacity="1"></stop><stop offset="70%" stop-color="#005e45" stop-opacity="1"></stop></linearGradient></defs><defs><linearGradient id="grad2_2" x1="0%" y1="0%" x2="100%" y2="100%"><stop offset="30%" stop-color="#004a56" stop-opacity="1"></stop><stop offset="70%" stop-color="#00315c" stop-opacity="1"></stop></linearGradient></defs><defs><linearGradient id="grad2_3" x1="0%" y1="0%" x2="100%" y2="100%"><stop offset="30%" stop-color="#001347" stop-opacity="1"></stop><stop offset="70%" stop-color="#00315c" stop-opacity="1"></stop></linearGradient></defs><g transform="translate(900, 0)"><path d="M0 572.8C-49.7 540.6 -99.3 508.4 -160.7 494.5C-222 480.7 -295 485.3 -322.7 444.2C-350.4 403 -332.7 316.2 -370.5 269.2C-408.4 222.3 -501.8 215.2 -544.7 177C-587.7 138.8 -580.2 69.4 -572.8 0L0 0Z" fill="#002355"></path><path d="M0 429.6C-37.3 405.4 -74.5 381.3 -120.5 370.9C-166.5 360.5 -221.3 364 -242 333.1C-262.8 302.3 -249.5 237.1 -277.9 201.9C-306.3 166.7 -376.3 161.4 -408.5 132.7C-440.8 104.1 -435.2 52 -429.6 0L0 0Z" fill="#003e5c"></path><path d="M0 286.4C-24.8 270.3 -49.7 254.2 -80.3 247.3C-111 240.4 -147.5 242.6 -161.3 222.1C-175.2 201.5 -166.3 158.1 -185.3 134.6C-204.2 111.1 -250.9 107.6 -272.4 88.5C-293.8 69.4 -290.1 34.7 -286.4 0L0 0Z" fill="#00544e"></path><path d="M0 143.2C-12.4 135.1 -24.8 127.1 -40.2 123.6C-55.5 120.2 -73.8 121.3 -80.7 111C-87.6 100.8 -83.2 79 -92.6 67.3C-102.1 55.6 -125.4 53.8 -136.2 44.2C-146.9 34.7 -145.1 17.3 -143.2 0L0 0Z" fill="#005e45"></path></g><g transform="translate(0, 900)"><path d="M0 -572.8C53 -551.4 106 -530 168.4 -518.3C230.8 -506.7 302.6 -504.7 336.7 -463.4C370.7 -422 367.1 -341.2 398.8 -289.8C430.6 -238.4 497.7 -216.4 532.6 -173C567.5 -129.7 570.1 -64.8 572.8 0L0 0Z" fill="#002355"></path><path d="M0 -429.6C39.8 -413.5 79.5 -397.5 126.3 -388.7C173.1 -380 226.9 -378.6 252.5 -347.5C278 -316.5 275.3 -255.9 299.1 -217.3C322.9 -178.8 373.3 -162.3 399.4 -129.8C425.6 -97.2 427.6 -48.6 429.6 0L0 0Z" fill="#003e5c"></path><path d="M0 -286.4C26.5 -275.7 53 -265 84.2 -259.2C115.4 -253.3 151.3 -252.4 168.3 -231.7C185.4 -211 183.6 -170.6 199.4 -144.9C215.3 -119.2 248.9 -108.2 266.3 -86.5C283.7 -64.8 285.1 -32.4 286.4 0L0 0Z" fill="#00544e"></path><path d="M0 -143.2C13.3 -137.8 26.5 -132.5 42.1 -129.6C57.7 -126.7 75.6 -126.2 84.2 -115.8C92.7 -105.5 91.8 -85.3 99.7 -72.4C107.6 -59.6 124.4 -54.1 133.1 -43.3C141.9 -32.4 142.5 -16.2 143.2 0L0 0Z" fill="#005e45"></path></g></svg>