<svg id="visual" viewBox="0 0 900 200" width="900" height="200" xmlns="http://www.w3.org/2000/svg" xmlns:xlink="http://www.w3.org/1999/xlink" version="1.1"><path d="M0 62L16.7 63.5C33.3 65 66.7 68 100 72.8C133.3 77.7 166.7 84.3 200 80.5C233.3 76.7 266.7 62.3 300 68.7C333.3 75 366.7 102 400 110.5C433.3 119 466.7 109 500 96.3C533.3 83.7 566.7 68.3 600 60.8C633.3 53.3 666.7 53.7 700 60.5C733.3 67.3 766.7 80.7 800 90.5C833.3 100.3 866.7 106.7 883.3 109.8L900 113L900 0L883.3 0C866.7 0 833.3 0 800 0C766.7 0 733.3 0 700 0C666.7 0 633.3 0 600 0C566.7 0 533.3 0 500 0C466.7 0 433.3 0 400 0C366.7 0 333.3 0 300 0C266.7 0 233.3 0 200 0C166.7 0 133.3 0 100 0C66.7 0 33.3 0 16.7 0L0 0Z" fill="#0044ff" stroke-linecap="round" stroke-linejoin="miter"></path></svg>